<svg version="1.1" id="Layer_1" xmlns="http://www.w3.org/2000/svg" xmlns:xlink="http://www.w3.org/1999/xlink" x="0px"
  y="0px" viewBox="0 0 120 120" style="enable-background:new 0 0 120 120;" xml:space="preserve">
  <g>
    <polygon style="fill:none;" points="199.9,54.4 211.1,45.3 210.9,45.2 199.9,45.2  " />
    <polygon style="fill:none;" points="135.5,45.2 134.9,45.6 145.9,54.6 145.9,45.2  " />
    <polygon style="fill:#FFFFFF;" points="210.9,45.2 199.9,39 199.9,45.2  " />
    <polygon style="fill:#FFFFFF;" points="145.9,39.4 135.5,45.2 145.9,45.2  " />
    <path style="fill:#FFFFFF;"
      d="M196.9,20c0-0.7-0.6-1.3-1.3-1.3h-45.3c-0.7,0-1.3,0.6-1.3,1.3v37L162.2,68c3.2-0.9,6.7-1.4,10.3-1.4
                              c3.5,0,7,0.5,10.5,1.5l13.9-11.2V20z M165,37.5c0-0.8,0.7-1.5,1.5-1.5h24c0.8,0,1.5,0.7,1.5,1.5s-0.7,1.5-1.5,1.5h-24
                              C165.7,39,165,38.3,165,37.5z M154.5,28c-0.8,0-1.5-0.7-1.5-1.5s0.7-1.5,1.5-1.5h19c0.8,0,1.5,0.7,1.5,1.5s-0.7,1.5-1.5,1.5H154.5z
                                  M186.5,49h-32c-0.8,0-1.5-0.7-1.5-1.5s0.7-1.5,1.5-1.5h32c0.8,0,1.5,0.7,1.5,1.5S187.3,49,186.5,49z" />
    <path d="M145.9,39.4v5.8v9.4l3,2.5V20c0-0.7,0.6-1.3,1.3-1.3h45.3c0.7,0,1.3,0.6,1.3,1.3v36.8l3-2.4v-9.2V39v-3.4V20
                              c0-2.4-1.9-4.3-4.3-4.3h-45.3c-2.4,0-4.3,1.9-4.3,4.3v15.9V39.4z" />
    <path style="fill:#FFFFFF;" d="M186.4,69.1c6,2.3,11.8,6,17.2,11.1c3.8,3.6,6.7,7.1,8.5,9.7V48.4L186.4,69.1z" />
    <path style="fill:#FFFFFF;" d="M133.6,48.4v41.3c4-5.7,12.6-16,25.2-20.7L133.6,48.4z" />
    <path style="fill:#755CA7;"
      d="M214.6,44.1l0.1-0.2l-14.9-8.4V39l11.1,6.2l0.2,0.1l-11.3,9.1l-3,2.4L183,68c-3.4-1-6.9-1.5-10.5-1.5
                              c-3.7,0-7.1,0.5-10.3,1.4L148.9,57l-3-2.5l-11-9l0.6-0.3l10.4-5.8v-3.4L132,43.7c-0.2,0-0.4,0-0.6,0.1c-0.5,0.2-0.9,0.8-0.9,1.4
                              v49.3c0,0.8,0.7,1.5,1.5,1.5h0.2h81.1h0.2c0.8,0,1.5-0.7,1.5-1.5V45.2C215.1,44.8,215,44.4,214.6,44.1z M212.1,89.9
                              c-1.9-2.6-4.7-6.1-8.5-9.7c-5.4-5.1-11.2-8.8-17.2-11.1l25.8-20.8V89.9z M210.7,93H135c4.2-6.2,17.5-23.5,37.5-23.5
                              C192.6,69.5,206.3,86.7,210.7,93z M133.6,89.7V48.4L158.8,69C146.2,73.8,137.6,84,133.6,89.7z" />
    <path style="fill:#FFFFFF;" d="M172.5,69.5c-20,0-33.4,17.2-37.5,23.5h75.7C206.3,86.7,192.6,69.5,172.5,69.5z" />
    <path
      d="M175,26.5c0-0.8-0.7-1.5-1.5-1.5h-19c-0.8,0-1.5,0.7-1.5,1.5s0.7,1.5,1.5,1.5h19C174.3,28,175,27.3,175,26.5z" />
    <path d="M190.5,39c0.8,0,1.5-0.7,1.5-1.5s-0.7-1.5-1.5-1.5h-24c-0.8,0-1.5,0.7-1.5,1.5s0.7,1.5,1.5,1.5H190.5z" />
    <path d="M186.5,46h-32c-0.8,0-1.5,0.7-1.5,1.5s0.7,1.5,1.5,1.5h32c0.8,0,1.5-0.7,1.5-1.5S187.3,46,186.5,46z" />
    <path style="fill:#FFFFFF;"
      d="M85.3,65.3c0.8,0.1,1.6-0.2,2.3-0.7c0.6-0.5,1-1.3,1.1-2.1c0.1-0.8-0.2-1.6-0.7-2.3c-0.5-0.6-1.3-1-2.1-1.1
                              c-0.1,0-0.2,0-0.3,0c-0.7,0-1.4,0.2-1.9,0.7c-0.6,0.5-1,1.3-1.1,2.1c-0.1,0.8,0.2,1.6,0.7,2.3C83.7,64.8,84.5,65.2,85.3,65.3z" />
    <path style="fill:#FFFFFF;" d="M70.5,58.2c0.8,0.1,1.6-0.2,2.3-0.7c1.3-1.1,1.5-3,0.5-4.4c-0.6-0.8-1.5-1.2-2.4-1.2c-0.7,0-1.4,0.2-2,0.7
                              c-1.3,1.1-1.5,3-0.5,4.4C68.9,57.7,69.6,58.1,70.5,58.2z" />
    <path style="fill:#FFFFFF;"
      d="M44.4,69.9c4.7-0.6,9,2.7,9.6,7.4c0,0.3,0.1,0.6,0.1,1h11.4c0.1-4.2,3.2-7.8,7.4-8.3c4.7-0.6,9,2.7,9.6,7.4
                              c0.3,2.4-0.5,4.8-1.9,6.5l11.9,12.7c2.7,1.9,6.6,2.1,9.6,0.5c2.5-1.3,4-3.5,4-6.1c0-1-0.7-3.8-1.1-5.1c-0.2-0.9-0.4-1.3-0.4-1.6
                              l-8.1-29.9c-1.5-6.2-6.3-10.4-11.9-10.4h-49c-5.6,0-10.1,5.4-11.9,10.4l-9.2,32.1c-0.3,1.1-0.5,2.2-0.4,3.3c0,0.5,0,0.9,0,1.1
                              c0.3,2.7,1.9,4.9,4.3,6.1c2.6,1.3,5.6,1.2,8.1-0.2c0.4-0.2,0.8-0.5,1.2-0.8l11.8-11.7c-1.2-1.3-2.1-2.9-2.3-4.8
                              C36.5,74.7,39.8,70.5,44.4,69.9z M79,61.5c0.2-1.8,1-3.3,2.4-4.4c1.4-1.1,3.1-1.6,4.8-1.4c1.8,0.2,3.3,1,4.4,2.4s1.6,3.1,1.4,4.8
                              c-0.2,1.8-1,3.3-2.4,4.4c-1.2,1-2.6,1.5-4.1,1.5c-0.2,0-0.5,0-0.7,0c-1.8-0.2-3.3-1-4.4-2.4S78.9,63.2,79,61.5z M66.6,50
                              c2.8-2.3,7-1.9,9.3,1c2.3,2.8,1.9,7-1,9.3c-1.2,1-2.6,1.5-4.1,1.5c-0.2,0-0.5,0-0.7,0c-1.8-0.2-3.3-1-4.4-2.4
                              C63.4,56.4,63.8,52.3,66.6,50z M31.4,59.9c0-1,0.8-1.8,1.8-1.8h5.4v-5.4c0-1,0.8-1.8,1.8-1.8s1.8,0.8,1.8,1.8v5.4h5.4
                              c1,0,1.8,0.8,1.8,1.8s-0.8,1.8-1.8,1.8H42V67c0,1-0.8,1.8-1.8,1.8S38.5,68,38.5,67v-5.4h-5.4C32.2,61.7,31.4,60.9,31.4,59.9z" />
    <path style="fill:#000000;" d="M108.3,84.9c-0.1-0.5-0.3-1-0.3-1.2l-8.2-30.4c-1.9-7.8-8-13-15.3-13H61.8c0-0.1,0-0.1,0-0.2V20.2
                              c0-1-0.8-1.8-1.8-1.8s-1.8,0.8-1.8,1.8v19.9c0,0.1,0,0.1,0,0.2H35.5c-7.4,0-13,6.4-15.2,12.8L11,85.4c-0.4,1.4-0.6,2.9-0.6,4.4
                              c0,1,0,1.3,0.1,1.4c0.5,3.9,2.7,7.1,6.2,8.8c3.6,1.8,7.9,1.7,11.4-0.3c0.6-0.3,1.2-0.7,1.7-1.2l12.5-12.3c-1.1-0.5-2.1-1.1-3-2
                              L27.5,95.9c-0.4,0.3-0.8,0.6-1.2,0.8c-2.5,1.4-5.5,1.5-8.1,0.2c-2.4-1.2-4-3.4-4.3-6.1c0-0.2,0-0.6,0-1.1c0-1.1,0.1-2.3,0.4-3.3
                              l9.2-32.1c1.8-5,6.3-10.4,11.9-10.4h49c5.6,0,10.4,4.1,11.9,10.4l8.1,29.9c0,0.3,0.2,0.7,0.4,1.6c0.4,1.3,1.1,4.1,1.1,5.1
                              c0,2.6-1.5,4.8-4,6.1c-3.1,1.6-6.9,1.3-9.6-0.5L80.6,83.8c-0.7,0.9-1.7,1.6-2.8,2.2L90,99l0.3,0.2c2.2,1.6,4.8,2.3,7.4,2.3
                              c2,0,4.1-0.5,6-1.4c3.7-1.9,5.9-5.3,5.9-9.3C109.5,89.5,109,87.3,108.3,84.9z" />
    <path style="fill:#000000;"
      d="M65.5,79.4c-0.1-0.4-0.1-0.8-0.1-1.2H54.1c0,1.2-0.2,2.4-0.7,3.5h12.8C65.9,81,65.6,80.2,65.5,79.4z" />
    <path style="fill:#FFFFFF;" d="M50.5,77.7c-0.3-2.5-2.5-4.4-5-4.4c-0.2,0-0.4,0-0.6,0c-2.8,0.4-4.7,2.9-4.4,5.7c0.4,2.8,2.9,4.7,5.7,4.4
                              C48.9,83,50.9,80.4,50.5,77.7z" />
    <path style="fill:#755CA7;"
      d="M54.1,78.2c0-0.3,0-0.6-0.1-1c-0.6-4.7-4.9-8-9.6-7.4c-4.7,0.6-8,4.9-7.4,9.6c0.2,1.9,1.1,3.5,2.3,4.8
                              c0.8,0.9,1.8,1.5,3,2c1,0.4,2.1,0.6,3.2,0.6c0.4,0,0.7,0,1.1-0.1c3.1-0.4,5.6-2.4,6.8-5.1C53.8,80.6,54.1,79.4,54.1,78.2z M40.5,79
                              c-0.4-2.8,1.6-5.3,4.4-5.7c0.2,0,0.4,0,0.6,0c2.5,0,4.7,1.9,5,4.4c0.4,2.8-1.6,5.3-4.4,5.7C43.4,83.7,40.9,81.7,40.5,79z" />
    <path style="fill:#FFFFFF;" d="M74.7,83.3c2.8-0.4,4.7-2.9,4.4-5.7c-0.3-2.5-2.5-4.4-5-4.4c-0.2,0-0.4,0-0.6,0c-2.8,0.4-4.7,2.9-4.4,5.7
                              C69.4,81.7,71.9,83.7,74.7,83.3z" />
    <path style="fill:#755CA7;"
      d="M80.6,83.8c1.5-1.8,2.2-4.1,1.9-6.5c-0.6-4.7-4.9-8-9.6-7.4c-4.3,0.5-7.4,4.2-7.4,8.3c0,0.4,0,0.8,0.1,1.2
                              c0.1,0.8,0.3,1.6,0.6,2.3c1.3,3.1,4.4,5.2,7.9,5.2c0.4,0,0.7,0,1.1-0.1c1-0.1,1.9-0.4,2.7-0.8C78.9,85.4,79.8,84.7,80.6,83.8z
                                  M69,79c-0.4-2.8,1.6-5.3,4.4-5.7c0.2,0,0.4,0,0.6,0c2.5,0,4.7,1.9,5,4.4c0.4,2.8-1.6,5.3-4.4,5.7C71.9,83.7,69.4,81.7,69,79z" />
    <path style="fill:#755CA7;"
      d="M38.5,67c0,1,0.8,1.8,1.8,1.8S42,68,42,67v-5.4h5.4c1,0,1.8-0.8,1.8-1.8s-0.8-1.8-1.8-1.8H42v-5.4
                              c0-1-0.8-1.8-1.8-1.8s-1.8,0.8-1.8,1.8v5.4h-5.4c-1,0-1.8,0.8-1.8,1.8s0.8,1.8,1.8,1.8h5.4V67z" />
    <path style="fill:#755CA7;"
      d="M70.1,61.7c0.2,0,0.5,0,0.7,0c1.5,0,3-0.5,4.1-1.5c2.8-2.3,3.3-6.5,1-9.3c-2.3-2.8-6.5-3.3-9.3-1
                              c-2.8,2.3-3.3,6.5-1,9.3C66.8,60.6,68.3,61.5,70.1,61.7z M68.8,52.7c0.6-0.5,1.3-0.7,2-0.7c0.9,0,1.8,0.4,2.4,1.2
                              c1.1,1.3,0.9,3.3-0.5,4.4c-0.6,0.5-1.4,0.8-2.3,0.7c-0.8-0.1-1.6-0.5-2.1-1.1C67.3,55.7,67.5,53.8,68.8,52.7z" />
    <path style="fill:#755CA7;"
      d="M84.9,68.8c0.2,0,0.5,0,0.7,0c1.5,0,3-0.5,4.1-1.5c1.4-1.1,2.2-2.7,2.4-4.4c0.2-1.8-0.3-3.5-1.4-4.8
                              s-2.7-2.2-4.4-2.4c-1.7-0.2-3.5,0.3-4.8,1.4c-1.4,1.1-2.2,2.7-2.4,4.4c-0.2,1.8,0.3,3.5,1.4,4.8S83.2,68.6,84.9,68.8z M82.5,61.9
                              c0.1-0.8,0.5-1.6,1.1-2.1c0.6-0.5,1.2-0.7,1.9-0.7c0.1,0,0.2,0,0.3,0c0.8,0.1,1.6,0.5,2.1,1.1c0.5,0.6,0.8,1.5,0.7,2.3
                              c-0.1,0.8-0.5,1.6-1.1,2.1c-0.6,0.5-1.5,0.8-2.3,0.7c-0.8-0.1-1.6-0.5-2.1-1.1C82.7,63.5,82.4,62.7,82.5,61.9z" />
  </g>
</svg>